<?xml version="1.0" encoding="UTF-8" standalone="no"?>
<svg
   version="1.0"
   width="480.82584pt"
   height="436pt"
   viewBox="0 0 480.82584 436"
   preserveAspectRatio="xMidYMid"
   id="svg15"
   sodipodi:docname="logo-rangooo.svg"
   xml:space="preserve"
   xmlns:inkscape="http://www.inkscape.org/namespaces/inkscape"
   xmlns:sodipodi="http://sodipodi.sourceforge.net/DTD/sodipodi-0.dtd"
   xmlns="http://www.w3.org/2000/svg"
   xmlns:svg="http://www.w3.org/2000/svg"><defs
     id="defs15" /><sodipodi:namedview
     id="namedview15"
     pagecolor="#ffffff"
     bordercolor="#000000"
     borderopacity="0.25"
     inkscape:showpageshadow="2"
     inkscape:pageopacity="0.0"
     inkscape:pagecheckerboard="0"
     inkscape:deskcolor="#d1d1d1"
     inkscape:document-units="pt"><inkscape:page
       x="-6.1536381e-14"
       y="0"
       width="480.82587"
       height="436"
       id="page2"
       margin="0"
       bleed="0" /></sodipodi:namedview><g
     transform="matrix(0.1,0,0,-0.1,-18.174118,436)"
     fill="#000000"
     stroke="none"
     id="g15"
     style="fill:#e7342b;fill-opacity:1"><path
       d="m 1258,4349 c -43,-16 -55,-59 -67,-239 -26,-385 -34,-462 -56,-585 -77,-424 -79,-1095 -5,-1505 42,-232 106,-376 215,-485 76,-77 158,-125 287,-169 362,-123 1129,-165 1588,-85 317,54 494,137 630,294 154,178 220,535 221,1194 1,393 -25,640 -91,869 -91,314 -239,444 -600,526 -202,47 -524,75 -822,73 l -228,-2 -6,30 c -21,93 -107,124 -170,61 -26,-26 -34,-42 -34,-70 0,-39 -3,-41 -62,-50 l -36,-7 -7,51 c -10,73 -44,110 -99,110 -63,0 -90,-32 -96,-118 l -5,-66 -49,-12 c -28,-7 -53,-11 -58,-8 -4,3 -8,32 -8,65 0,94 -32,139 -100,139 -76,0 -100,-45 -100,-190 v -100 l -50,-25 -50,-25 v 112 c 0,123 -10,176 -38,201 -24,22 -70,29 -104,16 z m 377,-43 c 18,-13 20,-34 27,-233 15,-417 18,-461 38,-485 24,-30 83,-30 112,0 22,21 23,34 36,354 14,356 18,378 66,378 55,0 57,-9 77,-459 7,-165 14,-242 24,-261 16,-31 53,-44 87,-31 53,20 53,21 56,360 1,174 5,326 7,338 8,36 47,56 79,42 27,-12 30,-20 40,-79 6,-40 51,-573 62,-730 3,-58 7,-109 8,-115 0,-6 -29,-9 -74,-7 -41,2 -99,-2 -129,-8 -233,-45 -374,-258 -317,-479 20,-77 44,-121 104,-182 l 44,-47 2,-158 c 3,-139 6,-170 29,-247 56,-182 130,-309 255,-432 296,-295 717,-389 1137,-254 176,56 321,145 467,288 49,46 90,82 94,79 8,-9 -53,-184 -89,-252 -51,-99 -147,-186 -270,-246 -210,-103 -554,-159 -973,-160 -150,0 -165,2 -245,29 -355,120 -635,395 -764,751 -55,152 -66,239 -72,569 -5,288 -7,304 -25,309 -10,2 -50,20 -88,38 -132,63 -219,171 -246,306 -14,68 -12,103 20,536 22,299 39,468 46,477 18,22 67,19 79,-4 6,-11 13,-155 17,-337 3,-184 10,-331 16,-347 20,-51 82,-63 122,-24 22,22 24,34 30,178 17,398 27,524 43,542 19,21 43,22 68,3 z m 1410,-705 c 39,-10 90,-27 115,-38 70,-32 164,-106 210,-167 46,-61 57,-106 42,-173 -5,-24 -6,-43 -2,-43 13,0 50,97 50,131 v 32 l 91,-6 c 151,-10 266,-77 327,-192 24,-45 27,-61 27,-150 0,-89 -3,-106 -28,-156 -47,-97 -135,-164 -256,-195 -59,-15 -61,-14 -110,10 -27,14 -52,30 -55,35 -3,5 16,12 42,15 64,10 140,48 182,92 l 35,37 -42,-27 c -55,-36 -124,-56 -192,-56 h -56 l 35,27 c 43,34 100,94 100,106 0,5 -17,-6 -37,-23 -79,-70 -212,-106 -302,-83 -43,11 -49,26 -16,41 52,24 155,135 155,168 0,3 -27,-19 -60,-49 -113,-105 -234,-146 -450,-154 -213,-8 -381,29 -490,108 -22,16 -43,29 -47,29 -14,0 63,-72 110,-102 26,-16 47,-34 47,-38 0,-13 -104,-23 -147,-15 -51,9 -126,49 -173,92 -22,19 -40,30 -40,24 0,-25 95,-112 152,-140 l 59,-28 -34,-6 c -37,-6 -149,6 -181,19 -13,5 -17,4 -12,-4 9,-15 111,-52 146,-52 42,0 44,-14 4,-33 -28,-14 -43,-15 -80,-7 -108,24 -217,109 -265,207 -20,41 -24,63 -24,148 0,85 4,107 23,148 33,66 102,134 170,165 51,24 69,27 167,27 h 110 l 6,-55 c 5,-49 23,-110 32,-110 1,0 1,29 -1,65 -6,84 20,138 108,225 142,142 361,202 555,151 z m 145,-860 c 30,-11 79,-20 108,-21 47,0 60,-5 116,-47 35,-27 71,-52 80,-58 14,-9 14,-19 -5,-110 -16,-74 -22,-139 -23,-247 l -1,-148 h -576 -576 l -6,173 c -3,125 -10,192 -24,245 l -19,72 25,16 c 14,9 49,34 76,54 57,43 153,82 205,83 19,1 76,-5 125,-12 100,-15 236,-9 325,14 65,16 96,14 170,-14 z m 305,-767 c 19,-107 13,-130 -38,-139 -17,-3 -280,-5 -583,-3 -526,3 -553,4 -573,22 -24,22 -25,37 -10,138 l 11,73 h 588 l 588,1 z"
       id="path1"
       style="fill:#e7342b;fill-opacity:1" /><path
       d="m 2877,2550 c -4,-25 -12,-114 -18,-198 -8,-118 -8,-157 1,-168 17,-19 37,-18 49,4 9,17 -1,216 -17,347 l -8,60 z"
       id="path2"
       style="fill:#e7342b;fill-opacity:1" /><path
       d="m 2575,2400 c -9,-187 -7,-204 22,-208 33,-5 35,22 18,169 -24,210 -31,216 -40,39 z"
       id="path3"
       style="fill:#e7342b;fill-opacity:1" /><path
       d="m 3162,2460 c -22,-141 -30,-244 -20,-262 10,-21 37,-24 43,-5 3,6 1,89 -3,182 l -7,170 z"
       id="path4"
       style="fill:#e7342b;fill-opacity:1" /><path
       d="m 3377,2405 c -10,-44 -21,-112 -24,-151 -5,-58 -3,-72 10,-77 31,-12 38,17 35,164 l -3,144 z"
       id="path5"
       style="fill:#e7342b;fill-opacity:1" /><path
       d="m 2378,2325 c -2,-71 -2,-136 0,-142 6,-18 27,-16 42,2 11,13 10,35 -4,121 -26,162 -33,165 -38,19 z"
       id="path6"
       style="fill:#e7342b;fill-opacity:1" /><path
       d="m 190,955 c -14,-38 -9,-680 6,-695 7,-7 44,-10 95,-8 l 84,3 3,108 3,107 h 59 59 l 73,-107 73,-108 h 100 c 84,0 100,3 103,16 2,9 -31,60 -73,113 -41,53 -75,100 -74,104 0,4 19,21 42,37 150,109 125,349 -45,426 -50,23 -66,24 -275,27 l -223,3 z M 597,800 c 42,-27 56,-96 28,-136 -23,-34 -65,-45 -156,-42 l -84,3 -3,75 c -2,41 0,85 3,99 6,23 8,23 98,19 54,-2 101,-10 114,-18 z"
       id="path7"
       style="fill:#e7342b;fill-opacity:1" /><path
       d="m 3900,911 c -90,-28 -164,-94 -206,-184 -22,-50 -26,-69 -23,-136 3,-64 10,-88 37,-139 38,-73 38,-80 12,-132 -11,-22 -20,-44 -20,-49 0,-18 55,-21 110,-6 33,10 101,17 170,18 135,2 175,18 252,99 150,158 101,416 -97,509 -50,24 -72,29 -135,28 -41,0 -86,-4 -100,-8 z m 217,-60 c 173,-88 212,-312 78,-446 -68,-68 -175,-99 -259,-75 -39,11 -51,10 -101,-9 -32,-12 -60,-19 -63,-16 -3,3 0,16 6,30 18,39 15,67 -13,107 -106,156 -39,357 142,424 53,20 157,13 210,-15 z"
       id="path8"
       style="fill:#e7342b;fill-opacity:1" /><path
       d="m 1070,794 c -30,-8 -65,-21 -76,-29 -22,-14 -22,-15 -5,-72 20,-65 19,-65 111,-38 72,21 132,13 160,-22 37,-47 29,-53 -73,-53 -113,0 -171,-18 -217,-65 -30,-31 -35,-43 -38,-98 -3,-52 0,-67 20,-97 63,-95 208,-106 314,-25 32,24 33,25 39,5 12,-37 47,-51 121,-48 l 69,3 3,64 c 2,44 -1,68 -11,80 -10,11 -16,53 -20,133 -5,102 -9,123 -32,167 -41,74 -102,104 -220,108 -58,2 -109,-3 -145,-13 z m 194,-310 c 37,-14 4,-96 -45,-113 -32,-11 -74,-6 -96,12 -19,14 -16,61 5,79 26,24 100,36 136,22 z"
       id="path9"
       style="fill:#e7342b;fill-opacity:1" /><path
       d="m 1890,795 c -19,-9 -49,-30 -66,-46 l -32,-31 -7,41 -7,42 -81,-3 -82,-3 V 525 255 h 90 90 l 5,165 c 5,175 11,198 57,219 13,6 33,11 44,11 28,0 75,-26 84,-47 5,-10 11,-92 14,-183 l 6,-165 79,-3 c 44,-2 84,2 89,7 14,14 20,253 9,342 -12,97 -35,144 -85,177 -50,33 -152,41 -207,17 z"
       id="path10"
       style="fill:#e7342b;fill-opacity:1" /><path
       d="m 2441,797 c -52,-20 -112,-76 -133,-125 -28,-62 -28,-171 -1,-232 41,-92 130,-150 227,-150 45,0 113,27 135,53 25,31 43,21 35,-20 -18,-107 -114,-148 -239,-104 -33,12 -67,23 -75,24 -17,2 -71,-90 -63,-109 7,-19 94,-53 172,-66 125,-21 250,12 317,84 68,72 69,75 72,376 l 3,272 h -84 -85 l -7,-29 -6,-30 -45,32 c -39,28 -55,32 -117,34 -40,1 -87,-3 -106,-10 z m 193,-141 c 18,-8 41,-24 50,-37 18,-26 21,-100 6,-130 -15,-28 -63,-49 -110,-49 -81,0 -131,88 -94,165 27,58 85,77 148,51 z"
       id="path11"
       style="fill:#e7342b;fill-opacity:1" /><path
       d="m 3166,785 c -73,-30 -109,-64 -143,-133 -47,-96 -31,-232 37,-314 17,-20 56,-49 88,-65 50,-25 68,-28 152,-28 84,0 101,3 146,27 142,75 199,241 131,381 -16,31 -45,70 -65,87 -88,72 -234,92 -346,45 z m 204,-154 c 14,-10 31,-36 39,-57 27,-77 -8,-154 -79,-175 -80,-24 -156,48 -147,140 11,100 107,147 187,92 z"
       id="path12"
       style="fill:#e7342b;fill-opacity:1" /><path
       d="m 4544,781 c -217,-103 -218,-415 -2,-512 75,-34 211,-34 283,-1 105,48 165,139 165,251 0,96 -16,138 -80,202 -67,68 -122,89 -229,89 -63,0 -87,-5 -137,-29 z m 179,-132 c 49,-13 77,-57 77,-122 0,-59 -20,-101 -57,-115 -61,-24 -99,-18 -139,22 -30,30 -34,40 -34,89 0,62 23,101 74,123 38,16 33,16 79,3 z"
       id="path13"
       style="fill:#e7342b;fill-opacity:1" /><path
       d="m 635,10 c -3,-5 1,-10 10,-10 9,0 13,5 10,10 -3,6 -8,10 -10,10 -2,0 -7,-4 -10,-10 z"
       id="path14"
       style="fill:#e7342b;fill-opacity:1" /><path
       d="m 718,3 c 7,-3 16,-2 19,1 4,3 -2,6 -13,5 -11,0 -14,-3 -6,-6 z"
       id="path15"
       style="fill:#e7342b;fill-opacity:1" /></g></svg>
